<svg xmlns="http://www.w3.org/2000/svg" viewBox="-0.5 -0.5 32 32" id="Elephant--Streamline-Twemoji.svg" height="32" width="32"><desc>Elephant Streamline Emoji: https://streamlinehq.com</desc><path fill="#99aab5" d="M29.38446944444444 12.33739722222222C28.655366666666666 6.176922222222221 24.54976111111111 3.5210833333333333 17.628925 3.5210833333333333c-0.32997777777777776 0 -0.6439388888888888 0.014380555555555554 -0.9612583333333333 0.026177777777777776 -0.01093611111111111 -0.008438888888888888 -0.018513888888888885 -0.017738888888888887 -0.029536111111111107 -0.026177777777777776C12.676847222222221 0.5497333333333333 3.7618499999999995 1.5404416666666665 1.7820694444444445 4.511877777777777c-2.7469444444444444 4.120761111111111 -0.9907944444444444 18.819066666666664 0 20.79884722222222 0.9898472222222221 1.983225 3.9612833333333333 2.9714361111111107 4.951991666666666 1.983225 0.9907944444444444 -0.9924305555555556 0 -0.9924305555555556 -0.9898472222222221 -2.9714361111111107 -0.7173916666666665 -1.4354722222222223 -0.3932694444444444 -4.944413888888889 0.21519166666666667 -7.148686111111111 0.023594444444444442 0.1417388888888889 0.05735 0.27176666666666666 0.08438888888888889 0.4101472222222222 0.3291166666666666 2.422822222222222 1.681836111111111 6.255024999999999 1.681836111111111 8.223008333333333 0 3.0076888888888886 1.7738888888888888 3.465886111111111 3.961369444444444 3.465886111111111 2.1881694444444446 0 3.962058333333333 -0.4581972222222222 3.962058333333333 -3.465886111111111 0 -0.20253333333333332 -0.006716666666666666 -0.3907722222222222 -0.010074999999999999 -0.5865027777777778 0.6388583333333333 0.05399166666666667 1.2953694444444444 0.09024444444444445 1.9907166666666665 0.09024444444444445 0.4194472222222222 0 0.8245138888888889 -0.013519444444444442 1.2220027777777778 -0.03289444444444444 -0.003358333333333333 0.17635555555555554 -0.01093611111111111 0.34599444444444444 -0.01093611111111111 0.5291527777777778 0 3.0076888888888886 1.7747499999999998 3.465886111111111 3.9612833333333333 3.465886111111111 2.188255555555555 0 3.9621444444444447 -0.4581972222222222 3.9621444444444447 -3.465886111111111 0 -1.5198611111111109 1.00595 -3.9030722222222223 1.7206722222222222 -5.892152777777778 0.1342472222222222 -0.2987194444444444 0.24558888888888888 -0.6177611111111111 0.3544333333333333 -0.9426583333333333 0.09963055555555554 1.1029972222222222 0.16292222222222222 2.2835805555555555 0.16292222222222222 3.5494999999999997 0 0.46663611111111114 0.3772527777777777 0.8438888888888888 0.8438888888888888 0.8438888888888888s0.8438888888888888 -0.3772527777777777 0.8438888888888888 -0.8438888888888888c0 -4.3486972222222215 -0.6506555555555555 -7.804422222222222 -1.3055305555555554 -10.184275Z" stroke-width="1"></path><path fill="#66757f" d="M16.638991666666666 3.5210833333333333s3.0802805555555555 4.654133333333333 0.5485277777777777 8.873663888888888c-2.5316666666666663 4.219530555555555 -6.614538888888888 4.219530555555555 -9.28295 4.219530555555555 -1.6877777777777776 0 -0.8438888888888888 1.6878638888888888 0 1.6878638888888888 1.1933277777777775 0 7.084619444444444 1.0219666666666667 10.126838888888887 -5.063419444444444 2.5317527777777777 -5.0635055555555555 -1.3924166666666666 -9.717638888888889 -1.3924166666666666 -9.717638888888889Z" stroke-width="1"></path><path fill="#292f33" d="M4.528927777777778 11.128913888888889c-0.002497222222222222 0.9744333333333333 1.0508138888888887 1.5862527777777777 1.8959944444444443 1.1011888888888888 0.3942166666666666 -0.22621388888888885 0.6369638888888889 -0.6466083333333333 0.6357583333333332 -1.1011888888888888 0.002497222222222222 -0.9744333333333333 -1.0507277777777777 -1.5862527777777777 -1.8959083333333333 -1.1011888888888888 -0.3943027777777777 0.22629999999999997 -0.6369638888888889 0.6466083333333333 -0.6358444444444443 1.1011888888888888" stroke-width="1"></path></svg>