<svg xmlns="http://www.w3.org/2000/svg" viewBox="0 0 512 512" id="Elephant--Streamline-Twemoji" height="512" width="512"><desc>Elephant Streamline Emoji: https://streamlinehq.com</desc><path fill="#99aab5" d="M485.3176888888888 203.76604444444442C473.27573333333333 102.01884444444443 405.46702222222217 58.15466666666667 291.16159999999996 58.15466666666667c-5.449955555555555 0 -10.635377777777778 0.2375111111111111 -15.876266666666666 0.43235555555555555 -0.1806222222222222 -0.13937777777777777 -0.30577777777777776 -0.2929777777777778 -0.48782222222222216 -0.43235555555555555C209.37244444444445 9.079466666666665 62.13119999999999 25.44213333333333 29.43288888888889 74.51875555555556c-45.36888888888888 68.05902222222223 -16.36408888888889 310.81813333333326 0 343.51644444444446 16.348444444444443 32.7552 65.42506666666667 49.07662222222222 81.78773333333334 32.7552 16.36408888888889 -16.391111111111112 0 -16.391111111111112 -16.348444444444443 -49.07662222222222 -11.848533333333332 -23.708444444444442 -6.495288888888888 -81.66257777777777 3.554133333333333 -118.06862222222222 0.38968888888888886 2.3409777777777774 0.9472 4.488533333333333 1.3937777777777778 6.774044444444444 5.435733333333332 40.01564444444444 27.77742222222222 103.30879999999999 27.77742222222222 135.81226666666666 0 49.675377777777776 29.297777777777778 57.243022222222216 65.42648888888888 57.243022222222216 36.14008888888889 0 65.43786666666666 -7.567644444444444 65.43786666666666 -57.243022222222216 0 -3.3450666666666664 -0.11093333333333333 -6.454044444444444 -0.1664 -9.686755555555555 10.551466666666666 0.8917333333333334 21.394488888888887 1.490488888888889 32.87893333333333 1.490488888888889 6.927644444444444 0 13.617777777777777 -0.22328888888888887 20.182755555555556 -0.5432888888888888 -0.055466666666666664 2.9127111111111113 -0.1806222222222222 5.714488888888888 -0.1806222222222222 8.739555555555556 0 49.675377777777776 29.311999999999998 57.243022222222216 65.42506666666667 57.243022222222216 36.14151111111111 0 65.4392888888889 -7.567644444444444 65.4392888888889 -57.243022222222216 0 -25.10222222222222 16.614399999999996 -64.46364444444444 28.418844444444442 -97.31555555555555 2.2172444444444444 -4.933688888888889 4.056177777777778 -10.203022222222222 5.853866666666667 -15.569066666666666 1.645511111111111 18.217244444444443 2.6908444444444446 37.715911111111105 2.6908444444444446 58.623999999999995 0 7.707022222222222 6.230755555555555 13.937777777777777 13.937777777777777 13.937777777777777s13.937777777777777 -6.230755555555555 13.937777777777777 -13.937777777777777c0 -71.82364444444444 -10.746311111111112 -128.89884444444445 -21.56231111111111 -168.2048Z" stroke-width="14.2222"></path><path fill="#66757f" d="M274.81173333333334 58.15466666666667s50.87431111111111 76.86826666666666 9.059555555555555 146.55857777777777c-41.81333333333333 69.69031111111111 -109.24657777777777 69.69031111111111 -153.3184 69.69031111111111 -27.875555555555554 0 -13.937777777777777 27.876977777777775 0 27.876977777777775 19.709155555555554 0 117.01048888888887 16.878933333333332 167.25617777777776 -83.62808888888888 41.81475555555556 -83.62951111111111 -22.997333333333334 -160.49777777777777 -22.997333333333334 -160.49777777777777Z" stroke-width="14.2222"></path><path fill="#292f33" d="M74.80035555555556 183.80657777777776c-0.04124444444444444 16.093866666666663 17.355377777777775 26.198755555555554 31.31448888888889 18.187377777777776 6.510933333333333 -3.7361777777777774 10.520177777777777 -10.679466666666666 10.500266666666665 -18.187377777777776 0.04124444444444444 -16.093866666666663 -17.353955555555554 -26.198755555555554 -31.313066666666668 -18.187377777777776 -6.512355555555555 3.7375999999999996 -10.520177777777777 10.679466666666666 -10.501688888888888 18.187377777777776" stroke-width="14.2222"></path></svg>