<svg xmlns="http://www.w3.org/2000/svg" viewBox="0 0 192 192" id="Elephant--Streamline-Twemoji" height="192" width="192"><desc>Elephant Streamline Emoji: https://streamlinehq.com</desc><path fill="#99aab5" d="M181.9941333333333 76.41226666666665C177.4784 38.25706666666666 152.05013333333332 21.808 109.1856 21.808c-2.043733333333333 0 -3.9882666666666666 0.08906666666666666 -5.9536 0.16213333333333332 -0.06773333333333333 -0.05226666666666666 -0.11466666666666665 -0.10986666666666667 -0.1829333333333333 -0.16213333333333332C78.51466666666667 3.4048 23.2992 9.540799999999999 11.037333333333333 27.944533333333332c-17.013333333333332 25.522133333333333 -6.136533333333333 116.55679999999998 0 128.81866666666667 6.1306666666666665 12.2832 24.534399999999998 18.40373333333333 30.6704 12.2832 6.136533333333333 -6.1466666666666665 0 -6.1466666666666665 -6.1306666666666665 -18.40373333333333 -4.443199999999999 -8.890666666666666 -2.4357333333333333 -30.623466666666666 1.3328 -44.275733333333335 0.14613333333333334 0.8778666666666666 0.3552 1.6831999999999998 0.5226666666666666 2.5402666666666667 2.0383999999999998 15.005866666666666 10.416533333333334 38.74079999999999 10.416533333333334 50.9296 0 18.628266666666665 10.986666666666666 21.46613333333333 24.53493333333333 21.46613333333333 13.552533333333333 0 24.539199999999997 -2.8378666666666668 24.539199999999997 -21.46613333333333 0 -1.2544 -0.0416 -2.4202666666666666 -0.0624 -3.6325333333333334 3.9568 0.33440000000000003 8.022933333333333 0.5589333333333333 12.3296 0.5589333333333333 2.5978666666666665 0 5.1066666666666665 -0.08373333333333333 7.568533333333333 -0.20373333333333332 -0.0208 1.0922666666666667 -0.06773333333333333 2.142933333333333 -0.06773333333333333 3.2773333333333334 0 18.628266666666665 10.991999999999999 21.46613333333333 24.534399999999998 21.46613333333333 13.553066666666666 0 24.539733333333334 -2.8378666666666668 24.539733333333334 -21.46613333333333 0 -9.413333333333332 6.2303999999999995 -24.17386666666667 10.657066666666665 -36.49333333333333 0.8314666666666667 -1.8501333333333332 1.5210666666666666 -3.8261333333333334 2.1952 -5.8384 0.6170666666666667 6.831466666666666 1.0090666666666666 14.143466666666665 1.0090666666666666 21.983999999999998 0 2.8901333333333334 2.336533333333333 5.226666666666667 5.226666666666667 5.226666666666667s5.226666666666667 -2.336533333333333 5.226666666666667 -5.226666666666667c0 -26.933866666666663 -4.029866666666667 -48.337066666666665 -8.085866666666666 -63.0768Z" stroke-width="5.3333"></path><path fill="#66757f" d="M103.0544 21.808s19.077866666666665 28.825599999999998 3.397333333333333 54.959466666666664c-15.68 26.133866666666666 -40.96746666666667 26.133866666666666 -57.4944 26.133866666666666 -10.453333333333333 0 -5.226666666666667 10.453866666666666 0 10.453866666666666 7.390933333333333 0 43.87893333333333 6.3296 62.72106666666666 -31.36053333333333 15.680533333333333 -31.361066666666666 -8.623999999999999 -60.18666666666667 -8.623999999999999 -60.18666666666667Z" stroke-width="5.3333"></path><path fill="#292f33" d="M28.050133333333335 68.92746666666666c-0.015466666666666665 6.0352 6.508266666666666 9.824533333333333 11.742933333333333 6.820266666666666 2.4415999999999998 -1.4010666666666665 3.9450666666666665 -4.0047999999999995 3.9375999999999998 -6.820266666666666 0.015466666666666665 -6.0352 -6.5077333333333325 -9.824533333333333 -11.7424 -6.820266666666666 -2.442133333333333 1.4015999999999997 -3.9450666666666665 4.0047999999999995 -3.938133333333333 6.820266666666666" stroke-width="5.3333"></path></svg>